<mxfile host="Electron" agent="Mozilla/5.0 (Windows NT 10.0; Win64; x64) AppleWebKit/537.36 (KHTML, like Gecko) draw.io/27.0.9 Chrome/134.0.6998.205 Electron/35.4.0 Safari/537.36" version="27.0.9">
  <diagram name="第 1 页" id="mtZ_6-JlrpA9qEIZvgdS">
    <mxGraphModel dx="1042" dy="626" grid="1" gridSize="10" guides="1" tooltips="1" connect="1" arrows="1" fold="1" page="1" pageScale="1" pageWidth="827" pageHeight="1169" math="0" shadow="0">
      <root>
        <mxCell id="0" />
        <mxCell id="1" parent="0" />
        <mxCell id="yPpMA7j_pdgHyn0LDorG-6" style="edgeStyle=orthogonalEdgeStyle;rounded=0;orthogonalLoop=1;jettySize=auto;html=1;entryX=0.5;entryY=0;entryDx=0;entryDy=0;" edge="1" parent="1" source="RpAymcx81whrSD_f9FZQ-1" target="yPpMA7j_pdgHyn0LDorG-1">
          <mxGeometry relative="1" as="geometry" />
        </mxCell>
        <mxCell id="RpAymcx81whrSD_f9FZQ-1" value="&lt;font style=&quot;font-size: 18px;&quot;&gt;Acceptor Thread&lt;/font&gt;" style="rounded=0;whiteSpace=wrap;html=1;" parent="1" vertex="1">
          <mxGeometry x="230" y="100" width="230" height="70" as="geometry" />
        </mxCell>
        <mxCell id="RpAymcx81whrSD_f9FZQ-4" style="edgeStyle=orthogonalEdgeStyle;rounded=0;orthogonalLoop=1;jettySize=auto;html=1;entryX=1;entryY=0.5;entryDx=0;entryDy=0;" parent="1" source="RpAymcx81whrSD_f9FZQ-2" target="RpAymcx81whrSD_f9FZQ-1" edge="1">
          <mxGeometry relative="1" as="geometry" />
        </mxCell>
        <mxCell id="RpAymcx81whrSD_f9FZQ-2" value="监听新链接 (socket.accept())" style="rounded=1;whiteSpace=wrap;html=1;" parent="1" vertex="1">
          <mxGeometry x="580" y="105" width="120" height="60" as="geometry" />
        </mxCell>
        <mxCell id="yPpMA7j_pdgHyn0LDorG-8" value="" style="edgeStyle=orthogonalEdgeStyle;rounded=0;orthogonalLoop=1;jettySize=auto;html=1;" edge="1" parent="1" source="yPpMA7j_pdgHyn0LDorG-1" target="yPpMA7j_pdgHyn0LDorG-9">
          <mxGeometry relative="1" as="geometry">
            <mxPoint x="345" y="480" as="targetPoint" />
          </mxGeometry>
        </mxCell>
        <mxCell id="yPpMA7j_pdgHyn0LDorG-1" value="&lt;div&gt;&lt;br&gt;&lt;/div&gt;" style="whiteSpace=wrap;html=1;aspect=fixed;" vertex="1" parent="1">
          <mxGeometry x="255" y="220" width="180" height="180" as="geometry" />
        </mxCell>
        <mxCell id="yPpMA7j_pdgHyn0LDorG-2" value="Connection&lt;div&gt;(Actor: 单独线程/任务)&lt;/div&gt;" style="rounded=0;whiteSpace=wrap;html=1;" vertex="1" parent="1">
          <mxGeometry x="270" y="250" width="150" height="40" as="geometry" />
        </mxCell>
        <mxCell id="yPpMA7j_pdgHyn0LDorG-4" value="- read socket&lt;div&gt;- push incoming msg -&amp;gt; q&lt;/div&gt;&lt;div&gt;- pop from q -&amp;gt; write&lt;/div&gt;" style="text;html=1;align=left;verticalAlign=middle;whiteSpace=wrap;rounded=0;" vertex="1" parent="1">
          <mxGeometry x="275" y="320" width="140" height="30" as="geometry" />
        </mxCell>
        <mxCell id="yPpMA7j_pdgHyn0LDorG-5" value="每个 Session 对象对应一个客户端连接" style="text;html=1;align=center;verticalAlign=middle;whiteSpace=wrap;rounded=0;" vertex="1" parent="1">
          <mxGeometry x="460" y="240" width="210" height="30" as="geometry" />
        </mxCell>
        <mxCell id="yPpMA7j_pdgHyn0LDorG-9" value="Message Dispatcher" style="rounded=0;whiteSpace=wrap;html=1;" vertex="1" parent="1">
          <mxGeometry x="250" y="475" width="190" height="60" as="geometry" />
        </mxCell>
        <mxCell id="yPpMA7j_pdgHyn0LDorG-10" value="收集各 Session 的广播要求，调度分发" style="text;html=1;align=center;verticalAlign=middle;whiteSpace=wrap;rounded=0;" vertex="1" parent="1">
          <mxGeometry x="460" y="505" width="240" height="30" as="geometry" />
        </mxCell>
        <mxCell id="yPpMA7j_pdgHyn0LDorG-12" value="&lt;h1 style=&quot;margin-top: 0px;&quot;&gt;Acceptor&lt;/h1&gt;&lt;p&gt;监听端口新连接，创建对应的 Session (Actor)&lt;/p&gt;" style="text;html=1;whiteSpace=wrap;overflow=hidden;rounded=0;" vertex="1" parent="1">
          <mxGeometry x="110" y="600" width="300" height="80" as="geometry" />
        </mxCell>
        <mxCell id="yPpMA7j_pdgHyn0LDorG-13" value="&lt;h1 style=&quot;margin-top: 0px;&quot;&gt;Session(Actor)&lt;/h1&gt;&lt;p&gt;为每个客户端维护一个线程安全的队列 inbox，一条线程不断从 inbox 中取出要发送给客户端的消息写回 socket；读 socket 的事件直接入队给自己或广播中心&lt;/p&gt;" style="text;html=1;whiteSpace=wrap;overflow=hidden;rounded=0;" vertex="1" parent="1">
          <mxGeometry x="110" y="680" width="310" height="110" as="geometry" />
        </mxCell>
        <mxCell id="yPpMA7j_pdgHyn0LDorG-14" value="&lt;h1 style=&quot;margin-top: 0px;&quot;&gt;Diaspatcher / Broker&lt;/h1&gt;&lt;p&gt;收到某个 Actor 的“广播信息”请求后，把消息推给其他所有 Actor 的 inbox&lt;/p&gt;" style="text;html=1;whiteSpace=wrap;overflow=hidden;rounded=0;" vertex="1" parent="1">
          <mxGeometry x="114" y="800" width="300" height="80" as="geometry" />
        </mxCell>
      </root>
    </mxGraphModel>
  </diagram>
</mxfile>
